<?xml version="1.0" encoding="utf-8"?>
<!-- Generator: Adobe Illustrator 23.0.3, SVG Export Plug-In . SVG Version: 6.00 Build 0)  -->
<svg version="1.1" id="Calque_1" xmlns="http://www.w3.org/2000/svg" xmlns:xlink="http://www.w3.org/1999/xlink" x="0px" y="0px"
	 viewBox="0 0 225 225" style="enable-background:new 0 0 225 225;" xml:space="preserve">
<style type="text/css">
	.st0{clip-path:url(#SVGID_2_);fill:#CBCBCB;}
	.st1{clip-path:url(#SVGID_2_);}
	.st2{fill:#4B4B4B;}
</style>
<g>
	<defs>
		<rect id="SVGID_1_" width="225" height="225"/>
	</defs>
	<clipPath id="SVGID_2_">
		<use xlink:href="#SVGID_1_"  style="overflow:visible;"/>
	</clipPath>
	<rect class="st0" width="225" height="225"/>
	<g class="st1">
		<path class="st2" d="M37.9,192.6c5.7-2.9,11.4-5.9,17-8.8c4.9-2.5,9.8-5,14.6-7.6c7.3-3.9,12.8-9.3,15.6-17.2
			c0.6-1.8,1-3.7,1.2-5.6c0.2-1.8,0-3.4-0.9-5c-2.9-4.9-4.2-10.4-6-15.6c-0.9-2.7-1.8-5.4-2.7-8.2c-0.1-0.4-0.3-0.7-0.6-1
			c-4.5-3.8-6.9-8.7-7.7-14.5c-0.6-4.2-0.3-8.3,1.3-12.3c0.3-0.8,0.7-1.6,1.2-2.2c0.4-0.5,0.4-1,0.3-1.6c-1.3-5.3-2.3-10.8-2.9-16.2
			c-0.6-5.9,0.8-11.4,3.3-16.6c5.9-12.4,15.8-19.5,29-22.3c5.6-1.2,11.2-1.4,16.9-0.9c11.3,1.1,21,5.5,28.7,14c5,5.6,8.5,12,10,19.4
			c0.6,3.1,0.2,6.2-0.2,9.3c-0.5,4.6-1.5,9.1-2.6,13.6c-0.1,0.3-0.2,0.6,0.1,1c1.6,2.1,2.3,4.6,2.7,7.2c0.8,5.6,0.1,10.9-2.6,15.9
			c-1.3,2.4-2.9,4.4-5,6.1c-0.3,0.2-0.5,0.5-0.6,0.9c-1.8,5.8-3.6,11.6-5.4,17.4c-0.7,2.1-1.7,4.1-2.9,5.9c-1.6,2.5-1.6,5-1,7.8
			c1.1,5.2,3.6,9.6,7.2,13.4c3.1,3.4,6.8,6.2,10.9,8.3c10.1,5.1,20.2,10.3,30.2,15.5c27.3,17.8,18.7,54.3-1,38.2
			c-9.5,7.7-25.1-5.3-36.6-1.1c-5.2,1.9-10.7-2.6-16.1-1.5c-4.1,0.8-7.1,1.2-11.2,1.5c-3.4,0.3-6,4.2-9.5,4.2
			c-4.6-0.1-8.4,0.2-12.9-0.4c-5.1-0.7-8.7,1.5-13.6,0.1c-10.3-2.9-22.2,4.8-31.3-0.9c-5.5-3.5-12.1,1-16.8-3.4
			C29.1,247.6,2.4,217.7,37.9,192.6z"/>
	</g>
</g>
</svg>
