<svg width="198" height="13" viewBox="0 0 198 13" fill="none" xmlns="http://www.w3.org/2000/svg">
<path d="M4.5 4L8.39711 10.75H0.602886L4.5 4Z" fill="#A64F01"/>
<path d="M121.5 4L125.397 10.75H117.603L121.5 4Z" fill="#A64F01"/>
<path d="M33.5 4L37.3971 10.75H29.6029L33.5 4Z" fill="#A64F01"/>
<path d="M150.5 4L154.397 10.75H146.603L150.5 4Z" fill="#A64F01"/>
<path d="M62 4L65.4641 10.75H58.5359L62 4Z" fill="#A64F01"/>
<path d="M179 4L182.464 10.75H175.536L179 4Z" fill="#A64F01"/>
<path d="M91 4L94.4641 10.75H87.5359L91 4Z" fill="#A64F01"/>
<path d="M18.5 4L22.3971 10.75H14.6029L18.5 4Z" fill="#A64F01"/>
<path d="M135.5 4L139.397 10.75H131.603L135.5 4Z" fill="#A64F01"/>
<path d="M47.5 4L51.3971 10.75H43.6029L47.5 4Z" fill="#A64F01"/>
<path d="M164.5 4L168.397 10.75H160.603L164.5 4Z" fill="#A64F01"/>
<path d="M76.5 4L80.3971 10.75H72.6029L76.5 4Z" fill="#A64F01"/>
<path d="M193.5 4L197.397 10.75H189.603L193.5 4Z" fill="#A64F01"/>
<path d="M105.5 4L109.397 10.75H101.603L105.5 4Z" fill="#A64F01"/>
<path d="M11.5 9L7.60288 2.25L15.3971 2.25L11.5 9Z" fill="#F4B506"/>
<path d="M128.5 9L124.603 2.25L132.397 2.25L128.5 9Z" fill="#F4B506"/>
<path d="M40.5 9L36.6029 2.25L44.3971 2.25L40.5 9Z" fill="#F4B506"/>
<path d="M157.5 9L153.603 2.25L161.397 2.25L157.5 9Z" fill="#F4B506"/>
<path d="M69.5 9L65.6029 2.25L73.3971 2.25L69.5 9Z" fill="#F4B506"/>
<path d="M186.5 9L182.603 2.25L190.397 2.25L186.5 9Z" fill="#F4B506"/>
<path d="M98.5 9L94.6029 2.25L102.397 2.25L98.5 9Z" fill="#F4B506"/>
<path d="M26 9L22.5359 2.25L29.4641 2.25L26 9Z" fill="#F4B506"/>
<path d="M143 9L139.536 2.25L146.464 2.25L143 9Z" fill="#F4B506"/>
<path d="M55 9L51.5359 2.25L58.4641 2.25L55 9Z" fill="#F4B506"/>
<path d="M172 9L168.536 2.25L175.464 2.25L172 9Z" fill="#F4B506"/>
<path d="M83.5 9L79.6029 2.25L87.3971 2.25L83.5 9Z" fill="#F4B506"/>
<path d="M112.5 9L108.603 2.25L116.397 2.25L112.5 9Z" fill="#F4B506"/>
</svg>
