<?xml version="1.0" encoding="UTF-8"?>
<svg id="Calque_2" data-name="Calque 2" xmlns="http://www.w3.org/2000/svg" viewBox="0 0 162.04 82.48">
  <g id="Calque_1-2" data-name="Calque 1">
    <g>
      <g>
        <path d="m0,34.12h11.39c2.48,0,4.34.61,5.57,1.83,1.24,1.22,1.85,2.96,1.85,5.22s-.67,4.14-2.02,5.44c-1.35,1.31-3.4,1.96-6.17,1.96h-3.75v8.53H0v-22.99Zm6.88,9.8h1.68c1.32,0,2.25-.24,2.78-.71.53-.48.8-1.08.8-1.83s-.23-1.33-.7-1.84-1.34-.75-2.62-.75h-1.95v5.13Z" stroke-width="0"/>
        <path d="m20.17,34.12h7.61l4.47,7.76,4.48-7.76h7.57l-8.62,13.36v9.63h-6.87v-9.63l-8.64-13.36Z" stroke-width="0"/>
        <path d="m46.6,57.11v-22.99h11.42c2.12,0,3.74.19,4.86.56,1.12.38,2.02,1.07,2.71,2.09.69,1.02,1.03,2.26,1.03,3.72,0,1.28-.26,2.38-.79,3.3-.53.93-1.25,1.68-2.16,2.25-.59.37-1.39.67-2.41.91.82.28,1.41.56,1.78.85.25.19.62.59,1.1,1.21.48.62.8,1.09.96,1.43l3.32,6.66h-7.74l-3.66-7.03c-.46-.91-.88-1.5-1.24-1.77-.49-.36-1.05-.53-1.68-.53h-.61v9.33h-6.88Zm6.88-13.68h2.89c.31,0,.92-.1,1.82-.31.45-.09.82-.33,1.11-.72.29-.39.43-.83.43-1.33,0-.74-.23-1.31-.68-1.71s-1.31-.6-2.56-.6h-3.01v4.67Z" stroke-width="0"/>
        <path d="m84.24,53.32h-7.78l-1.08,3.8h-7l8.34-22.99h7.48l8.33,22.99h-7.18l-1.11-3.8Zm-1.42-4.97l-2.45-8.27-2.42,8.27h4.87Z" stroke-width="0"/>
        <path d="m94.63,34.12h9.01l3.48,13.99,3.45-13.99h9.01v22.99h-5.61v-17.53l-4.32,17.53h-5.08l-4.32-17.53v17.53h-5.61v-22.99Z" stroke-width="0"/>
        <path d="m141.63,34.12h10.18c2.01,0,3.63.28,4.86.85,1.23.56,2.26,1.37,3.06,2.43.81,1.06,1.39,2.29,1.75,3.69.36,1.4.55,2.89.55,4.45,0,2.46-.27,4.36-.81,5.72s-1.29,2.49-2.25,3.4-1.99,1.52-3.09,1.83c-1.5.42-2.86.63-4.09.63h-10.18v-22.99Zm6.85,5.21v12.56h1.68c1.43,0,2.45-.16,3.06-.49s1.08-.9,1.42-1.72.51-2.15.51-3.99c0-2.44-.38-4.1-1.15-5-.77-.9-2.04-1.35-3.81-1.35h-1.71Z" stroke-width="0"/>
      </g>
      <g>
        <path d="m135.14,59.77c.69.08,1.26.28,1.72.59s.78.68.98,1.09c.2.41.32.88.36,1.41.04.53.03,1.02-.04,1.49s-.18.93-.32,1.39c-.19.5-.41,1-.65,1.49-.24.49-.54,1.02-.9,1.59s-.75,1.09-1.16,1.59c-.42.5-.9.97-1.45,1.44-.55.46-1.12.86-1.71,1.19-.59.33-1.26.6-2.01.8-.75.2-1.52.3-2.32.3-1.41,0-2.67-.31-3.77-.94-.57,1.38-1.07,2.64-1.49,3.78-.42,1.14-.72,2.04-.91,2.69-.19.65-.34,1.2-.44,1.65-.11.45-.16.76-.18.93l-.02.24c-1.32-.24-2.09-1.21-2.33-2.9.03-.72.17-1.55.44-2.51.27-.96.6-1.91.99-2.87.39-.96.82-1.96,1.28-3.01.46-1.05.92-2.04,1.37-2.98.45-.94.86-1.85,1.23-2.73.37-.88.66-1.65.88-2.31.21-.66.31-1.21.28-1.66s-.19-.73-.51-.84c-.25-.09-.65-.03-1.21.18-.56.21-1.18.52-1.85.93-.67.41-1.36.9-2.05,1.48-.7.58-1.32,1.18-1.87,1.79-.55.61-.96,1.25-1.24,1.92s-.35,1.27-.22,1.8c.06.13.21.2.44.23.23.02.41-.02.56-.12.25-.12.5-.29.77-.53.27-.24.49-.45.67-.65s.43-.38.73-.53.64-.24,1.01-.24c.97.12,1.45.42,1.47.91.01.49-.39.98-1.21,1.48-1.06.63-2.25.95-3.6.94-.69,0-1.35-.09-1.99-.29-.64-.17-1.11-.44-1.42-.79s-.44-.74-.4-1.16c.04-.42.16-.84.35-1.25.2-.41.46-.8.78-1.17,1.2-1.49,2.85-2.81,4.95-3.96,2.07-1.13,3.93-1.75,5.57-1.85,1.68-.1,2.72.41,3.11,1.54.22.62.23,1.41.02,2.37.57-.64,1.15-1.22,1.72-1.73s1.18-.96,1.81-1.35c.63-.39,1.27-.66,1.92-.82.65-.15,1.27-.17,1.87-.05Zm-10.48,11.88c1.15,1.37,2.61,1.41,4.38.12,1.45-1.05,2.83-2.73,4.14-5.03,1.12-1.97,1.74-3.55,1.86-4.75.05-.65-.09-1.01-.43-1.07-.5-.1-1.05,0-1.67.33-.62.32-1.22.76-1.81,1.34s-1.18,1.23-1.79,1.97c-.61.74-1.16,1.48-1.65,2.21s-.94,1.42-1.34,2.07-.7,1.15-.92,1.52-.32.57-.32.6c-.01.02-.04.1-.09.25-.05.15-.09.26-.15.33-.05.07-.12.11-.21.12Z" fill="#fdac0d" stroke-width="0"/>
        <path d="m141.83,74.93c.13-.03.25-.02.37.03.12.05.19.12.23.21.04.09.03.18-.04.26-.36.44-.71.83-1.04,1.2-.14.14-.35.34-.61.63s-.48.51-.66.69c-.18.18-.41.38-.67.59-.27.21-.55.39-.86.54s-.64.25-.99.33c-.44.08-.82.09-1.12.03s-.56-.14-.77-.26c-.21-.11-.37-.27-.47-.48-.1-.21-.18-.42-.23-.63s-.06-.44-.04-.7c.02-.26.05-.5.1-.71.05-.22.1-.44.17-.65,1.8-5.89,3.18-9.76,4.14-11.62.16-.22.4-.28.74-.18.34.1.67.24,1.01.45.33.2.53.36.6.47.26.4.32.83.18,1.31-.13.35-.41,1.08-.83,2.19-.42,1.11-.8,2.11-1.12,2.99-.33.89-.66,1.85-1.01,2.87s-.59,1.88-.72,2.56c-.14.68-.15,1.12-.03,1.31.93-.57,2.05-1.66,3.38-3.25.06-.08.16-.14.29-.16Z" fill="#fdac0d" stroke-width="0"/>
        <path d="m153.08,73.27c.14-.02.26,0,.37.04.11.05.18.12.21.21.03.09.02.18-.05.26-.87.99-1.77,1.86-2.69,2.61-.92.75-1.68,1.18-2.28,1.28-1.08.18-1.85.12-2.31-.2s-.67-.8-.65-1.45c-.08.11-.19.26-.33.47-.14.2-.26.37-.35.49-.09.12-.2.25-.32.38-.12.13-.25.23-.37.29-.12.06-.25.08-.38.08-.21,0-.4,0-.59,0s-.35-.03-.51-.05c-.16-.02-.3-.05-.42-.07-.12-.02-.24-.05-.34-.1-.1-.04-.2-.07-.27-.1-.08-.03-.15-.06-.22-.1-.07-.04-.13-.07-.17-.1-.04-.02-.08-.05-.13-.08-.05-.03-.07-.05-.07-.06-.38-.25-.6-.67-.67-1.26s0-1.22.2-1.91c.2-.69.51-1.41.92-2.15.41-.74.89-1.4,1.44-1.97.23-.25.55-.51.94-.76.39-.25.82-.47,1.29-.64s.92-.27,1.34-.31.8.07,1.12.31c.33.24.53.61.63,1.13.26-.47.49-.82.68-1.03.16-.2.37-.25.66-.16.28.09.54.22.79.39.25.17.41.31.49.42.25.34.29.73.12,1.16-1.41,3.13-2.19,5.09-2.35,5.88-.09.44-.05.65.12.65.99-.46,2.27-1.59,3.85-3.39.06-.08.17-.13.3-.16Zm-9.2,3.38c.1.07.25.02.45-.15.2-.17.42-.43.66-.77.25-.34.49-.7.73-1.07.24-.38.48-.77.71-1.19.13-.31.4-.89.82-1.75-.33,0-.44-.1-.33-.31.31-.44.51-.84.58-1.18.07-.34.06-.59-.03-.73-.09-.14-.22-.24-.37-.3-.42.14-.92.71-1.5,1.71-.59,1-1.06,2.08-1.42,3.24-.36,1.16-.46,2-.3,2.52Z" fill="#fdac0d" stroke-width="0"/>
        <path d="m160.91,69.51c.14.26.08.74-.18,1.44-.07.16-.16.41-.29.75-.36,1-.65,1.74-.84,2.24-.2.49-.47,1.16-.81,2.01-.35.84-.63,1.48-.86,1.91-.23.43-.52.94-.87,1.55-.35.61-.69,1.06-1.01,1.36-.32.3-.68.61-1.07.93-.4.32-.81.53-1.25.65-.44.11-.9.16-1.4.14-.38-.02-.74-.07-1.08-.16-.34-.09-.64-.2-.88-.34-.24-.14-.47-.29-.67-.45s-.37-.32-.48-.48c-.11-.16-.21-.31-.28-.46-.08-.14-.11-.26-.11-.36,0-.09.02-.16.05-.18.18-.11.59-.21,1.21-.31.63-.1.96-.09,1,.04.01.34.06.62.14.86.08.24.17.41.26.52.1.1.21.19.32.24s.23.08.33.06.19-.03.27-.03c.63-.16,1.54-1.7,2.74-4.6-.83.63-1.71.97-2.64.99-.34,0-.63-.02-.89-.09s-.45-.18-.6-.33c-.14-.15-.26-.31-.35-.5-.09-.18-.13-.4-.13-.65,0-.25.02-.49.03-.71s.06-.49.15-.78c.08-.29.16-.54.23-.74.07-.2.15-.44.26-.7s.2-.46.25-.59c.06-.13.13-.28.21-.45.05-.1.18-.38.39-.83s.38-.83.53-1.14c.14-.3.32-.64.53-1.02.21-.38.39-.66.55-.84.14-.21.36-.27.65-.18.29.09.55.21.8.38.25.17.42.31.51.41.25.35.3.74.16,1.16-.05.11-.13.29-.23.54-.14.36-.26.65-.35.86-.09.21-.22.51-.37.91-.16.4-.28.73-.38.98-.1.25-.21.56-.33.91-.12.35-.22.64-.27.87-.06.23-.11.46-.16.69s-.06.41-.04.54c.02.14.06.23.13.27.08.05.31-.08.68-.41.38-.33.85-.79,1.41-1.38.14-.38.37-.99.68-1.82s.54-1.44.68-1.83.32-.84.52-1.36c.2-.52.36-.92.47-1.18.11-.27.21-.45.28-.55.17-.25.58-.17,1.24.25s1.05.76,1.18,1Z" fill="#fdac0d" stroke-width="0"/>
      </g>
      <g>
        <polygon points="127.83 52.42 144.59 25.63 131.86 12.31 127.83 52.42" fill="#fdac0d" stroke-width="0"/>
        <polygon points="117.58 20.21 127.83 52.42 131.86 12.31 117.58 20.21" fill="#a65308" stroke-width="0"/>
        <circle cx="133.78" cy="4.19" r="4.19" stroke-width="0"/>
      </g>
    </g>
  </g>
</svg>